<?xml version="1.0" encoding="utf-8"?>
<svg version="1.1" id="Capa_1" xmlns="http://www.w3.org/2000/svg" xmlns:xlink="http://www.w3.org/1999/xlink" x="0px" y="0px"
	 viewBox="0 0 276.46 276.36" style="enable-background:new 0 0 276.46 276.36;" xml:space="preserve">
<style type="text/css">
	.st0{fill:#E62D28;}
	.st1{fill:#F28F53;}
	.st2{fill:#078038;}
	.st3{fill:#FFFEFD;}
	.st4{fill:#FFFDFC;}
	.st5{fill:#FFFDFD;}
	.st6{fill:#FFFDFB;}
	.st7{fill:#FFF6F0;}
	.st8{fill:#FFFEFE;}
	.st9{fill:#FFFFFF;}
	.st10{fill:#EE781C;}
	.st11{fill:#FDFEFD;}
	.st12{fill:#82ADBF;}
	.st13{fill:#81ACBF;}
	.st14{fill:#FBFDFC;}
	.st15{fill:#FAFCFB;}
	.st16{fill:#C0DCE1;}
	.st17{fill:#B5D5DD;}
	.st18{fill:#FEFEFE;}
	.st19{fill:#FDFEFE;}
	.st20{fill:#F9FAFB;}
	.st21{fill:#EC781B;}
	.st22{fill:#79B78D;}
	.st23{fill:#5A909A;}
	.st24{fill:#79A2B1;}
	.st25{fill:#77AAB8;}
	.st26{fill:#ED7D19;}
	.st27{fill:#3E7572;}
	.st28{fill:#FDFDFE;}
	.st29{fill:#FDCE2E;}
	.st30{fill:#73A3AC;}
	.st31{fill:#E96C1C;}
	.st32{fill:#7CBB4C;}
	.st33{fill:#BDD4D7;}
	.st34{fill:#F2AE1F;}
	.st35{fill:#C3D6D9;}
	.st36{fill:#FDCF2F;}
	.st37{fill:#EE860C;}
	.st38{fill:#E5860E;}
	.st39{fill:#F39358;}
	.st40{fill:#F3965D;}
	.st41{fill:#F4985F;}
	.st42{fill:#F3955B;}
	.st43{fill:#F4985E;}
	.st44{fill:#F49860;}
	.st45{fill:#4173B5;}
	.st46{fill:#EE7569;}
	.st47{fill:#3B6D70;}
	.st48{fill:#107E3D;}
	.st49{fill:#FCCC32;}
	.st50{fill:#FEDE7D;}
	.st51{fill:#FDCF32;}
	.st52{fill:#FAFAFB;}
	.st53{fill:#798F73;}
	.st54{fill:#F0A121;}
	.st55{fill:#7FBB48;}
	.st56{fill:#3B79B9;}
	.st57{fill:#F1850B;}
	.st58{fill:#3E7AB9;}
	.st59{fill:#68BFAC;}
</style>
<g>
	<path class="st0" d="M276.46,138.29c-0.1,76.46-61.52,137.72-138.09,138.07C61.72,276.71-2.89,213.01,0.1,132.52
		C2.76,60.7,63.32-2.96,144.09,0.11C215.53,2.82,276.38,61.67,276.46,138.29z"/>
	<path class="st1" d="M138.16,263.94C70.34,264.25,13.68,207.95,14.3,136.98C14.88,69.23,70.86,13.04,138.39,13.21
		c67.98,0.18,124.06,56,123.87,125.45C262.07,209.22,205.7,264.24,138.16,263.94z"/>
	<path class="st2" d="M234.06,138.2c1.14,52.37-43.95,96.41-96.37,96.09c-50.78-0.31-95.77-42.19-95.57-96.29
		c0.2-53.06,42.91-95.71,95.99-95.89C191.93,41.93,235.08,86.75,234.06,138.2z"/>
	<path class="st3" d="M64.82,228.52c2.68-2.41,5.39-4.78,8.03-7.23c0.98-0.91,1.77-1.62,3.15-0.59c1.23,0.91,1.38,1.9,0.92,3.23
		c-1.18,3.38-2.32,6.78-3.06,10.55c2.52-2.39,5.1-4.72,7.54-7.19c1.23-1.24,2.37-1.86,3.78-0.5c1.83,1.76-0.41,2.33-1.14,3.04
		c-3.22,3.12-6.64,6.03-9.86,9.14c-1.36,1.32-2.36,1.16-3.87,0.24c-1.64-1-1.33-2.01-0.82-3.42c1.13-3.11,2.11-6.27,3.46-10.32
		c-3.08,2.79-5.45,4.93-7.8,7.08c-1.13,1.04-2.06,1.97-3.83,0.77c-1.6-1.09-1.68-2.23-1.13-3.79c1.52-4.34,2.96-8.7,4.54-13.02
		c0.31-0.85,0.21-2.57,2.06-1.76c1.48,0.65,2,1.61,1.36,3.24c-1.31,3.33-2.49,6.71-3.72,10.08
		C64.56,228.22,64.69,228.37,64.82,228.52z"/>
	<path class="st3" d="M121.89,32.1c0-1.12,0.02-2.23,0-3.35c-0.05-3.16-0.04-3.22,3.14-2.32c0.62,0.17,0.86-0.08,1.23-0.28
		c0.54-0.29,1.11-0.95,1.59-0.88c4.33,0.58,8.59-0.51,12.88-0.44c1.79,0.03,2.64,1.85,2.82,3.5c0.31,2.83,0.34,5.7,0.54,8.55
		c0.09,1.35-0.3,2.06-1.81,2.12c-1.61,0.07-2.25-0.55-2.25-2.13c0.01-2.11-0.05-4.22-0.18-6.33c-0.09-1.43-0.47-2.75-2.32-2.76
		c-1.76-0.01-2.46,1.22-2.6,2.61c-0.18,1.71,0.07,3.47,0.05,5.2c-0.02,1.42,1.14,3.41-1.63,3.66c-3.07,0.27-2.09-2.1-2.28-3.58
		c-0.2-1.59-0.09-3.22-0.16-4.84c-0.06-1.36-0.63-2.52-2.06-2.7c-1.65-0.21-2.64,0.97-2.76,2.41c-0.18,2.08,0.04,4.2,0.07,6.31
		c0.01,1.28,0.59,2.79-1.68,2.93c-2.28,0.14-2.33-1.25-2.34-2.83c0-1.61,0-3.23,0-4.84C122.04,32.1,121.97,32.1,121.89,32.1z"/>
	<path class="st3" d="M102.14,241.44c3.54-0.46,6.29,0.26,7.04,3.97c0.68,3.36-2.1,8.47-5.04,9.63c-1.96,0.77-3.66,0.25-5.17-1.04
		c-1.03-0.88-1.55-2.36-3.57-1.53c-0.76,0.31-2.23-0.67-1.36-2.51c2.22-4.7,4.22-9.5,6.28-14.28c0.58-1.34,1.17-1.97,2.8-1.24
		c1.81,0.81,1.11,1.84,0.65,2.97C103.27,238.67,102.76,239.92,102.14,241.44z"/>
	<path class="st3" d="M106.54,43.22c-1.11-0.84-1.45,0.2-2.03,0.79c-1.67,1.73-3.64,2.65-6.04,1.71c-1.82-0.71-2.6-2.32-2.63-4.15
		c-0.04-2.71,2.12-3.71,4.12-4.75c0.44-0.23,0.94-0.32,1.39-0.53c0.66-0.32,1.46-0.58,1.05-1.6c-0.34-0.85-1.08-0.93-1.85-0.92
		c-1.2,0.02-2.14,0.65-2.97,1.4c-1.12,1-1.82,0.28-2.45-0.53c-0.85-1.1,0.26-1.55,0.85-2.05c4.43-3.7,9.2-2.44,11.02,2.89
		c0.56,1.64,1.13,3.29,1.64,4.95C109.5,43.21,109.37,43.36,106.54,43.22z"/>
	<path class="st4" d="M194.97,41.84c-0.9,3.45-2.89,6.61-4.54,9.92c-0.44,0.88-1.76,0.28-1.89-0.13c-0.74-2.38-2.67-1.76-4.34-2.08
		c-2.74-0.52-4.57-1.98-4.05-5.14c0.48-2.9,2.68-4.16,5.85-3.39c0.72,0.18,1.41,0.64,2.12,0.63c0.9-0.01,1.95,1.97,2.68-0.02
		c0.48-1.29-0.51-1.97-1.55-2.58c-1.28-0.75-4.53-0.05-3.37-2.61c1.03-2.29,3.44-0.35,5.12,0.29
		C193.19,37.57,194.82,39.05,194.97,41.84z"/>
	<path class="st3" d="M152.52,31.22c0.85-0.36,2.92,1.17,2.87-1.18c-0.04-1.86-1.9-1.53-3.23-1.59c-1.27-0.05-3.15,0.64-3.15-1.46
		c0-2.14,1.98-1.41,3.18-1.44c5.84-0.16,7.68,1.85,7.05,7.6c-0.11,0.99-0.29,1.97-0.53,2.94c-0.53,2.12,0.89,6.91-4.15,3.14
		c-0.23-0.17-0.88,0.28-1.34,0.36c-2.34,0.4-4.73,0.96-6.44-1.44c-1.03-1.45-1.08-2.94-0.28-4.56
		C147.76,31,150.08,31.29,152.52,31.22z"/>
	<path class="st3" d="M161.77,258.1c-1.25-0.12-3.19,0.35-3.11-1.95c0.08-2.44,2.05-1.02,3.14-1.18c1.73-0.26,3.88-0.1,4.09-2.31
		c0.21-2.21-2.11-2-3.52-2.53c-0.81-0.3-1.71-0.37-2.49-0.73c-2.2-0.99-3.63-2.58-3.55-5.17c0.07-2.46,1.6-3.88,3.67-4.68
		c1.24-0.48,2.66-0.65,4.01-0.67c1.11-0.01,2.7-0.33,2.73,1.63c0.03,1.89-1.35,1.73-2.61,1.74c-1.6,0.01-3.68-0.31-3.89,1.85
		c-0.21,2.17,2.03,2.18,3.49,2.58c4.87,1.35,6.55,3.11,6.04,6.54C169.34,256.14,166.23,258.07,161.77,258.1z"/>
	<path class="st4" d="M171.28,245.38c0.18-5.1,5.95-8.31,9.86-5.86c1.53,0.96,2.7,2.43,2.8,4.19c0.12,2.03-2.05,1.7-3.24,2.37
		c-0.43,0.24-0.98,0.31-1.34,0.62c-0.87,0.75-3.35,0.17-2.52,2.2c0.71,1.76,2.6,1.58,4.22,0.84c0.56-0.26,1.05-0.71,1.63-0.87
		c0.76-0.2,1.22-2.01,2.32-0.51c0.87,1.18,0.4,2.17-0.69,2.81c-2.7,1.59-5.51,3.21-8.71,1.54
		C172.56,251.11,171.58,248.19,171.28,245.38z"/>
	<path class="st3" d="M89.09,32.76c-0.09,1.85-1.8,1.85-2.86,2.53c-1.28,0.82-3.08,0.98-1.94,3.46c1.18,2.58,2.53,1.53,4.14,0.86
		c1.09-0.45,2.29-2.11,3.42-0.15c1.26,2.17-0.76,2.61-2,3.01c-3.49,1.13-2.19,3.04-1.14,5.13c0.64,1.27,2.26,2.81-0.31,3.91
		c-0.98,0.42-1.8,0.7-2.42-0.63c-2.22-4.71-4.48-9.4-6.85-14.03c-0.71-1.39,0.05-1.89,1-2.2c2.81-0.93,4.94-3.64,8.24-3.14
		C88.66,31.56,88.85,32.33,89.09,32.76z"/>
	<path class="st5" d="M80.68,240.78c0.17-2.51,1.64-5.02,4.34-6.66c2.3-1.4,4.57-0.67,6.65,0.69c2.85,1.86,3.5,5.14,1.88,8.17
		c-0.71,1.33-1.43,1.45-2.6,0.77c-1.28-0.75-2.56-1.53-3.92-2.12c-0.77-0.34-1.64-1.67-2.52-0.29c-0.71,1.12-0.08,2.18,0.73,3.01
		c0.98,1,2.25,1.49,3.63,1.7c0.68,0.1,1.69,0.03,1.4,1.17c-0.2,0.8-0.48,1.62-1.64,1.73C85.3,249.26,80.67,244.97,80.68,240.78z"/>
	<path class="st3" d="M232.93,202.43c1.1,0.36,2.12,0.82,1.93,2.03c-0.48,2.96-1.89,5.56-4.61,6.85c-3.34,1.58-6.28,0.21-8.78-2.2
		c-2.17-2.1-2.33-4.6-1.17-7.19c1.09-2.44,2.88-3.98,5.8-3.83c4.02,0.22,4.95,1.8,2.94,5.17c-0.44,0.75-1.02,1.43-1.34,2.23
		c-0.32,0.81-1.73,1.59-0.54,2.54c1.2,0.96,2.34,0.23,3.3-0.68C231.86,206.02,231.99,204,232.93,202.43z"/>
	<path class="st4" d="M192.16,231.74c1.41-2.59,3.15-2.62,5.36-0.87c1.71,1.35,3.62,2.45,5.29,3.57c1.08-3.79-5.24-7.53,0.54-11.78
		c1.34,4.58,2.58,8.8,3.82,13.02c0.38,1.28-0.25,2.1-1.19,2.85c-1.03,0.82-1.92,0.74-3.02,0.03c-3.53-2.29-7.12-4.48-10.69-6.71
		L192.16,231.74z"/>
	<path class="st5" d="M161.45,37.17c-0.03-6.96,5.37-10.56,11.08-7.38c0.8,0.44,2.05,0.74,1.31,2.12c-0.56,1.04-1.12,1.56-2.62,0.95
		c-3.42-1.39-4.9-0.56-5.69,2.74c-0.8,3.35,0.61,4.96,4.03,4.88c0.9-0.02,1.81-0.02,1.65,1.32c-0.12,0.99-0.64,1.47-1.63,1.7
		C165.57,44.47,161.47,41.3,161.45,37.17z"/>
	<path class="st4" d="M219.73,223.57c-2.75,0.05-7.1-3.15-7.89-6c-0.93-3.33,0.77-5.75,3.16-7.76c0.63-0.53,1.48-1.65,2.45-0.33
		c0.7,0.96,1.16,1.86-0.29,2.7c-1.54,0.9-2.42,2.37-1.66,4.08c0.77,1.73,2.28,3.04,4.16,3.43c1.94,0.4,2.73-1.25,3.64-2.61
		c0.37-0.56,0.06-2.17,1.5-1.38c0.79,0.43,1.6,1.04,1.32,2.36C225.64,220.37,222.11,223.53,219.73,223.57z"/>
	<path class="st4" d="M115.87,39.59c0.21,1.29-0.1,2.1-1.37,2.31c-1.2,0.19-2.15,0.18-2.45-1.4c-0.67-3.53-1.42-7.04-2.23-10.53
		c-0.36-1.53,0.78-2.68,1.57-2.03c2.35,1.94,3.25-0.14,4.66-1.09c0.83-0.56,1.9-1.09,2.52,0.18c0.41,0.85,0.8,2.5-0.1,2.72
		c-6.09,1.45-3.22,5.54-2.82,8.91C115.69,39.01,115.82,39.37,115.87,39.59z"/>
	<path class="st4" d="M192.26,231.85c-0.28,0.96,1.14,2.16,0.25,2.71c-4.96,3.08-1.46,6.12-0.05,9.1c0.69,1.45,2.01,2.73-0.44,3.74
		c-0.88,0.36-1.58,0.56-2.16-0.5c-1.78-3.24-3.61-6.45-5.47-9.65c-0.59-1-0.11-2.2,0.59-1.99c3.13,0.98,3.53-1.95,5.08-3.2
		c0.62-0.5,1.34-0.59,2.1-0.33C192.16,231.74,192.26,231.85,192.26,231.85z"/>
	<path class="st4" d="M180.96,34.03c-1.28,3.58-2.55,7.31-3.99,10.98c-0.47,1.2-1.69,0.84-2.6,0.49c-0.8-0.3-1.48-0.74-1.02-1.93
		c1.36-3.57,2.62-7.19,3.9-10.79c0.37-1.04,0.94-1.35,1.96-0.81C180.05,32.4,181.24,32.46,180.96,34.03z"/>
	<path class="st6" d="M207.4,219.15c0.3,0.24,0.71,0.51,1.05,0.86c2.44,2.49,4.82,5.03,7.31,7.47c1.08,1.07,0.86,1.78-0.12,2.76
		c-1.07,1.06-1.83,0.9-2.77-0.11c-2.38-2.54-4.81-5.04-7.22-7.55c-0.53-0.56-1.07-1.17-0.41-1.92
		C205.77,220.03,206.25,219.23,207.4,219.15z"/>
	<path class="st7" d="M180.94,30.57c-1.04-0.26-2.13-0.63-2.13-2.01c0-1.15,0.74-1.77,1.9-1.76c1.24,0.01,2.24,0.53,2.21,1.88
		C182.91,29.76,182.14,30.42,180.94,30.57z"/>
	<path class="st8" d="M205.19,217.22c-0.31,1.34-1.04,2.09-2.32,1.96c-0.9-0.09-1.67-0.67-1.58-1.65c0.1-1.19,0.89-2.03,2.12-2.08
		C204.59,215.4,205.01,216.3,205.19,217.22z"/>
	<path class="st9" d="M170.21,95.6c-0.82,5.38-0.36,10.8-0.54,16.2c-0.47,4.64-4.38,4.69-7.49,5.11
		c-5.01,0.68-10.08,1.04-15.16,0.19c-2.37-0.4-3.93-1.52-3.64-3.82c0.74-5.94,0.53-11.9,0.67-17.85c0.02-1.03,0.43-1.94,1.36-2.52
		c4.38-1,8.84-0.27,13.25-0.45c2.1-0.09,4.17-0.07,6.22-0.69C170.07,90.19,170.08,90.23,170.21,95.6z"/>
	<path class="st10" d="M108.48,104.36c-0.02-0.52-0.04-1.03-0.06-1.55c0.4-3.73-0.69-7.89,3.11-10.63
		c8.01-0.33,15.58-3.7,23.67-3.45c0.95,0.08,1.87,0.13,2.86-0.06c2.94-0.56,5.26,0.32,6.4,3.33c0.24,2.82-0.67,5.12-3.01,6.8
		c-3.4,1.33-6.92,1.91-10.57,1.85c-3.24-0.06-6.48,0.1-9.71-0.04c-3.12-0.14-4.19,1.26-4.12,4.25c0.13,5.47-0.01,10.95,0.05,16.43
		c0.05,3.85,0.83,4.38,4.57,4.8c6.78,0.77,13.31-0.72,19.9-1.75c1.69,0.99,0.89,1.98,0,2.97c-1.64,1.83-3.82,2.93-6.07,3.44
		c-7.84,1.79-15.56,1.4-22.94-2.12c-3.11-1.48-3.89-3.93-2.94-7.1c-0.95-4.55-0.93-9.14-0.31-13.7
		C109.51,106.45,108.8,105.5,108.48,104.36z"/>
	<path class="st11" d="M133.89,160.92c2.96,0,5.2,0,7.96,0c-1.68,1.11-1.36,2.34-0.95,3.62c2,6.26,3.99,12.53,5.99,18.82
		c3.21-4.56,7.27-20.89,5.54-22.43c1.66,0,3.27,0,5.86,0c-2.57,0.97-2.99,2.57-3.49,4.19c-2.39,7.83-4.84,15.64-7.27,23.46
		c-0.25,0.8-0.16,1.89-1.28,2.04c-1.53,0.21-1.36-1.29-1.62-2.05c-2.25-6.68-4.39-13.41-6.75-20.71c-2.08,3.41-2.59,6.8-3.74,9.93
		c-1.33,3.61-2.34,7.32-3.58,10.96c-0.24,0.72-0.11,1.93-1.39,1.88c-1.18-0.05-1.14-1.09-1.39-1.9c-2.42-7.82-4.84-15.64-7.27-23.46
		c-0.52-1.68-0.62-3.64-2.76-4.27c2.45,0,4.9,0,7.97,0c-1.48,0.75-2.02,1.36-1.61,2.65c2.05,6.6,3.97,13.25,6.25,20.94
		c2.25-6.98,4.13-12.91,6.08-18.82C137.14,163.63,136.14,162.33,133.89,160.92z"/>
	<path class="st12" d="M112.59,84.53c0.69-2.28-0.95-5.7,3.1-6.3c0.45-0.07,0.73,0.04,0.18-0.42c-3.18-2.67-1.16-6.12-1.37-9.23
		c1.97-1.2,3.86,0.22,5.8,0.18c4.83-0.11,9.68,0.57,14.47-0.52c1.11-0.25,2.23-0.26,3.21,0.49c1.4,2.6,0.82,5.31,0.43,8
		c-0.8,1.65-2.79,0.99-3.91,2.01c-4.39,1.09-8.81,1.29-11.8,0.72c2.98,0.5,7.42,0.46,11.8-0.77c0.76-0.51,1.64-0.88,2.31-0.06
		c0.66,0.81,0.11,1.67-0.44,2.33c-1.65,2-4.1,2.33-6.38,2.38c-3.54,0.09-7.16,0.66-10.65-0.53c-1.15-0.39-1.9,0.02-2.4,1.05
		C115.62,85.01,114.23,85.6,112.59,84.53z"/>
	<path class="st13" d="M164.49,61.88c0.8,3.98,0.19,7.78-1.5,11.44c-0.47,1.04-1.1,2.12-2.25,2.3c-5.94,0.92-11.92,2.05-17.52-1.42
		c-0.48-0.45-0.75-0.99-0.7-1.66c0.66-1.7,2.08-1.12,3.17-0.87c3.41,0.78,6.86,0.98,10.33,0.95c-3.48,0.01-6.93-0.22-10.34-0.99
		c-4.35-0.98-4.78-1.44-4.65-5.95c0.02-0.87-0.03-1.75,0.44-2.54c0.65-0.92,1.65-1.22,2.64-1.05
		C150.92,63.25,157.7,62.59,164.49,61.88z"/>
	<path class="st14" d="M160.97,183.6c1.94,4.04,4.73,6.43,9.29,6.29c2.9-0.09,5.04-1.38,5.85-4.27c0.84-2.99-0.61-5.1-3.08-6.49
		c-1.94-1.09-4.06-1.84-6.08-2.79c-4.74-2.23-6.63-6.23-5.03-10.58c1.53-4.16,6.03-6.1,10.76-5.1c1.59,0.34,3.04,3.39,5.08,0.59
		c0.18-0.25,0.66,0.48,0.66,0.99c0,1.94,0,3.89-0.36,5.95c-1.21-2.82-2.43-5.42-5.67-6.16c-3.09-0.71-5.84-0.23-7.28,2.84
		c-1.47,3.13-0.01,5.61,2.66,7.27c1.88,1.16,4.03,1.9,6.05,2.84c5.17,2.42,7.3,6.03,5.98,10.12c-1.43,4.45-6.27,7.01-11.46,5.98
		c-1.08-0.21-2.17-0.56-3.16-1.05c-1.49-0.75-2.87-1.28-4.21,0.84C160.97,188.03,160.97,185.81,160.97,183.6z"/>
	<path class="st15" d="M115.01,167.8c-1.42-5.53-1.44-5.23-7.41-5.64c-3.98-0.27-5.06,1.15-4.46,4.71c0.08,0.48,0.01,0.99,0.01,1.49
		c0,7.13,1.08,8,8.3,6.72c1.21-0.22,1.21-0.22,2.22-3.01c0.57,2.56,0.32,4.88,0.03,7.35c-0.58-2.16-1.53-3.43-4.01-3
		c-1.93,0.33-5.18-0.6-5.72,0.3c-1.89,3.12-0.53,6.93-0.78,10.46c-0.07,0.9-0.44,2.18,0.81,2.56c1.01,0.3,2.16,0.18,3.24,0.7
		c-3.45,0-6.89,0-10.34,0c2.56-0.21,2.38-2.07,2.37-3.95c-0.04-7.22-0.01-14.43-0.02-21.65c0-1.58,0.43-3.44-2.07-4.06
		c5.74,0,11.47,0.01,17.21-0.01c0.97,0,1.68,0.06,1.62,1.34c-0.08,1.9-0.02,3.81-0.02,5.71
		C115.66,167.83,115.33,167.81,115.01,167.8z"/>
	<path class="st16" d="M164.79,76.44c4.1,3.18,5.36,7.63,5.59,12.54c-0.35-0.05-0.69-0.15-1-0.3c-2.29-0.62-2.87-2.91-4.28-4.38
		c-3.02-0.61-5.37-2.67-8.33-3.61c-4.99-1.57-8.77,1.08-12.99,2.41c-2.18-0.01-4.34-0.23-6.42-0.97c-0.23-4.62,2.66-7.73,7.58-7.07
		c5.45,0.73,10.78,0.96,16.17-0.04C162.67,74.73,163.62,75.81,164.79,76.44z"/>
	<path class="st17" d="M112.59,84.53c1.4-0.45,2.81-0.9,4.21-1.36c0.54-0.88,1.43-0.99,2.27-0.8c5.76,1.27,11.44,0.47,17.12-0.5
		c0.37-0.06,0.7,0.17,1.01,0.36c0.32,0.22,0.67,0.37,1.05,0.44c2.12,0.48,3.12,2.52,4.88,3.52c0.88,1.06,1.54,2.21,1.5,3.65
		c-0.06,0.82-0.29,1.55-1.1,1.94c-1.57-1.73-3.37-2.76-5.69-1.53c-1.14,0.6-1.77-0.44-2.66-0.59c-0.18-0.26-0.32-0.54-0.43-0.83
		c-1.22-1.8-2.92-0.57-4.4-0.68c-3.55-0.28-7,1.59-10.58,0.49c-2.67-1.34-5.89-0.89-8.46-2.56
		C111.75,85.56,112.17,85.05,112.59,84.53z"/>
	<path class="st18" d="M137.59,68.88c-7.73,2.19-15.43,2.68-23.09-0.3c-0.08-1.86,1.18-2.41,2.66-2.76
		c6.49-3.63,13.05-2.92,19.66-0.38c0.54,0.43,1.01,0.92,1.25,1.59C138.24,67.73,138.15,68.37,137.59,68.88z"/>
	<path class="st19" d="M164.49,61.88c-3.71,2.96-8.21,2.17-12.39,2.28c-3.26,0.08-6.54-0.84-9.81-1.32
		c-0.68-0.81-1.02-1.58,0.22-2.19c6.47-2.87,13.13-2.07,19.78-0.93C163.42,59.92,164.31,60.59,164.49,61.88z"/>
	<path class="st20" d="M118.97,58.87c6.98-2.87,13.96-2.85,20.94-0.03c0.66,1.44,0.32,2.57-1.03,3.39c-0.41,0.16-0.83,0.29-1.26,0.4
		c-5.31,1.8-10.68,1.33-16,0.16C119.81,62.38,118.1,61.36,118.97,58.87z"/>
	<path class="st21" d="M148.12,127.72c1.22,0.3,2.91-0.47,3.6,1.14c0.68,1.56-0.35,2.49-1.66,3.22c-0.74,0.42-0.5,1.31-0.63,2.03
		c-0.19,1.01-0.67,1.8-1.74,2.21c-1.01,0.38-9.64-0.4-10.32-1.12c-0.98-1.05-1.02-3.09-0.08-3.19c3.56-0.34,6.13-2.4,8.97-4.09
		C146.74,127.63,147.47,127.78,148.12,127.72z"/>
	<path class="st22" d="M143.54,91.78c-0.01-0.82-0.02-1.63-0.04-2.45c0.35-0.09,0.68-0.06,1.01,0.08c0.45,0.29,0.77,0.7,0.97,1.19
		c0.2,0.65,0.6,1.22,0.71,1.9c0,0.35-0.14,0.64-0.42,0.86c-1.33,1.35-0.69,3.06-0.76,4.61c-0.23,4.71,0.31,9.45-0.41,14.15
		c-0.44,2.84,0.65,3.82,3.62,3.96c5.61,0.27,11.15,0.15,16.65-0.94c2.05-0.41,4.12-0.93,4.8-3.36c0.51,1.43,0.51,2.81-0.32,4.13
		c-0.56-0.04-0.96,0.26-1.33,0.62c-1.4,1.32-3.07,1.77-4.95,1.62c-5.1,0.79-10.33-0.21-15.38,1.11c-1.58,0.03-2.28,1.41-3.37,2.2
		c-0.38,0.06-0.74,0-1.09-0.17c-0.63-0.49-1.09-1.1-1.39-1.83c-0.78-2.66-0.33-5.31-0.05-8c0.43-4.24,0.76-8.51-0.23-12.73
		c-0.17-0.35-0.24-0.71-0.19-1.1C142.71,95.92,144.51,94.36,143.54,91.78z"/>
	<path class="st23" d="M138.39,83.08c-7.2-0.11-14.39,1-21.59,0.1c-0.64-0.51-1.6-0.83-0.87-1.99c0.77-1.22,1.5-0.22,2.19,0.01
		c5.18,1.75,10.41,1.47,15.62,0.24c1.16-0.27,2.33-0.93,2.49-2.37c0.01-0.1-1.06-0.32-1.64-0.48l0.05,0.05
		c0.67-1,1.69-1.34,2.8-1.52c1.36-1.32-0.03-3.19,0.92-4.58c1.98-1.31,3.23,1.83,5.16,0.85c6.51,2.63,13,2.78,19.48-0.08
		c-0.27,1.53,1.23,2.06,1.79,3.12c-2.4-0.81-4.8-0.91-7.31-0.33c-4.79,1.11-9.64-0.83-14.45,0.15c-3.24,0.66-5.18,3.07-4.79,5.9
		c0.21,0.17,0.3,0.37,0.28,0.58C138.49,82.97,138.45,83.08,138.39,83.08z"/>
	<path class="st24" d="M118.97,58.87c-0.08,2.01,1.35,2.38,2.88,2.69c5.29,1.08,10.58,0.8,15.88,0.05c1.4,2.03,1.62,3.85-0.95,5.16
		c-6.43-2.63-13.04-1.51-19.62-0.94C119.39,63.93,117.05,60.84,118.97,58.87z"/>
	<path class="st25" d="M111.58,121.15c-2.52,4.17-0.51,6.03,3.67,7.68c3.54,1.39,7.15,0.59,10.41,2.12
		c0.76,0.36,1.91,0.93,2.42,0.62c3.13-1.83,7.01-0.54,10.08-2.61c1.63-1.1,3.52-1.82,4.07-3.99c-0.63-1.19,0.14-1.51,1.08-1.71
		c0.14,0.1,0.28,0.21,0.43,0.31c0.22,3.61-2.18,5.53-4.97,6.64c-8.52,3.39-17.18,3.17-25.65-0.21c-3.14-1.26-5.35-3.64-4.62-7.54
		C109.31,121.51,109.91,120.08,111.58,121.15z"/>
	<path class="st26" d="M163.91,137.72c-3.43,0.38-4.12-2.65-5.24-4.94c-0.52-1.06,0.49-2.08,1.61-2.54c1.71-0.7,3.42-0.73,4.83,0.58
		c0.6,0.55,0.72,1.71,1.36,2.09c1.31,0.77,2.33,1.67,1.75,3.18C167.51,137.94,165.68,137.64,163.91,137.72z"/>
	<path class="st27" d="M139.1,72.74c-1.38,1.15-0.02,3.34-1.66,4.4c0.47-2.74,0.33-5.5,0.15-8.25c-0.01-0.47-0.02-0.94-0.03-1.41
		c-0.39-0.62,0.05-0.9,0.47-1.2c1.24-0.19,1.56-0.99,1.49-2.13c-0.1-1.52,0.1-2.97,1.15-4.18c0.61,0.23,1.21,0.46,1.82,0.69
		c-0.07,0.73-0.14,1.46-0.22,2.19c-0.6,7.73,0.12,8.62,7.72,8.99c3.33,0.16,6.67,0.03,10.92,0.03c-5.44,2.68-10.07,0.85-14.66,0.36
		c-1.21-0.13-2.36-0.82-3.39,0.34C141.61,72.42,140.29,71.05,139.1,72.74z"/>
	<path class="st28" d="M111.32,86.07c3.15-1.22,5.87,0.07,8.57,1.46c0,2.97-2.01,4.06-4.46,4.3c-1.46,0.15-2.88,0.52-4.34,0.57
		c-2.67-1.12-1.49-3.1-1.1-4.9C110.44,87.02,110.88,86.55,111.32,86.07z"/>
	<path class="st29" d="M169.91,119.69c1.96-2.62,4.57-4.42,7.81-4.38c2.76,0.04,3.54,2.61,2.1,5.82
		C176.33,121.94,173.09,121.03,169.91,119.69z"/>
	<path class="st30" d="M167.98,115.36c0.46,0.19,0.92,0.37,1.38,0.56c-0.71,3.01-2.91,4.55-5.61,5.45
		c-4.79,1.59-9.72,1.91-14.75,1.61c-1.75-0.1-3.7-1.18-5.28,0.59c0,0-0.14-0.12-0.14-0.12c-0.44-0.4-0.58-0.89-0.51-1.47
		c0.12-0.35,0.34-0.63,0.65-0.82c0.22-0.08,0.43-0.15,0.66-0.2c0.87-0.77,1.91-1.4,3.05-1.11c2.99,0.76,5.91-0.21,8.81-0.11
		c3.33,0.11,6.02-1.8,9.2-1.91C166.81,117.78,167.47,116.53,167.98,115.36z"/>
	<path class="st31" d="M112.79,137.92c-1.84-0.13-3.97-0.03-3.75-2.51c0.21-2.38,2.55-1.93,4.05-1.99c1.51-0.06,3.9-0.39,3.82,2.12
		C116.82,138.16,114.41,137.65,112.79,137.92z"/>
	<path class="st32" d="M145.77,93.37c0.11-0.17,0.19-0.35,0.24-0.55c1.15-1.62,2.88-1.02,4.41-1.12c4.15-0.27,8.35,0.54,12.45-0.71
		c1.3-0.4,2.59-0.74,3.63-1.68c0.92-0.73,1.88-1.37,3.1-1.44c0.26,0.36,0.52,0.72,0.79,1.1c-0.05,2.24-0.11,4.45-0.16,6.65
		c-0.13-1.33-0.25-2.64-0.41-4.25C161.93,94.9,153.82,93.71,145.77,93.37z"/>
	<path class="st33" d="M109.99,87.5c0.21,1.75-0.42,3.78,1.69,4.88l0.35,0.11l-0.1,0.35c-0.84,0.94-0.04,2.76-1.93,3.23
		c-0.9,0.23-1.19,1.56-0.71,2.22c1.37,1.92,0.14,3.16-0.86,4.52C107.41,97.55,107.21,92.37,109.99,87.5z"/>
	<path class="st34" d="M181.71,127.94c-1.52-0.45-3.79-0.41-3.5-2.54c0.29-2.16,2.53-1.96,4.26-1.96c1.54,0,3.23,0.03,2.99,2.26
		C185.2,127.99,183.13,127.46,181.71,127.94z"/>
	<path class="st35" d="M111.58,121.15c-1.03,0.44-2.05,0.87-3.08,1.31c0.04-6.03-0.7-12.06-0.01-18.1c1.26,1.35,3.04,2.51,0.95,4.67
		c-0.45,0.47-0.51,1.82-0.17,2.45c0.91,1.69,0.91,3.05,0.1,4.88c-0.88,1.99,0.66,3.37,2.38,4.32c0.07,0.04,0.15,0.21,0.12,0.26
		C111.81,121.03,111.68,121.08,111.58,121.15z"/>
	<path class="st24" d="M140.68,59.96c-0.06,2.19-0.07,4.38-0.19,6.57c-0.05,0.91-0.64,1.72-1.54,1.77
		c-0.78,0.04-0.59-0.89-0.73-1.44c-0.34-1.77-0.36-3.54,0.11-5.29c1.12-0.57,1.67-1.47,1.59-2.74
		C140.17,59.21,140.43,59.58,140.68,59.96z"/>
	<path class="st36" d="M163.9,125.58c1.58-2.94,5.15-3.17,7.28-0.47C168.9,127.46,166.45,127.25,163.9,125.58z"/>
	<path class="st37" d="M169.91,119.69c3.52-1.02,6.49,1.77,9.91,1.44C175.66,122.84,171.93,122.29,169.91,119.69z"/>
	<path class="st38" d="M163.9,125.58c2.44,0.09,4.91,0.54,7.28-0.48c0.5,2.28-1.39,2.32-2.65,2.5
		C166.71,127.87,164.6,128.18,163.9,125.58z"/>
	<path class="st39" d="M102.56,243.74c1.82,0.11,2.68,0.99,2.81,2.55c0.19,2.22-2.29,5.8-3.95,5.57c-1.47-0.2-2.62-1.17-2.35-2.76
		C99.46,246.83,100.02,244.49,102.56,243.74z"/>
	<path class="st40" d="M104.12,40.04c-0.18,1.49-0.84,2.56-2.49,2.66c-1.22,0.08-1.97-0.66-1.87-1.75c0.16-1.75,1.63-2.36,3.11-2.63
		C104.22,38.07,104.01,39.22,104.12,40.04z"/>
	<path class="st41" d="M186.49,47.39c-1.13-0.08-2.31-0.31-2.4-1.71c-0.09-1.31,0.79-2.14,2.07-2.02c1.15,0.1,2.77,0.19,2.89,1.68
		C189.16,46.8,187.89,47.35,186.49,47.39z"/>
	<path class="st39" d="M152.37,37.39c-1.17-0.06-2.05-0.43-2.1-1.65c-0.06-1.61,1.01-2.12,2.38-2.08c0.87,0.02,2.2-0.39,2.19,1.15
		C154.83,36.38,153.78,37.16,152.37,37.39z"/>
	<path class="st42" d="M176.4,245.13c-1.33,0.23-1.43-0.54-1.32-1.31c0.2-1.38,1.08-2.16,2.46-2.26c1.11-0.07,2.29,0.69,2.13,1.54
		C179.37,244.8,177.28,244.28,176.4,245.13z"/>
	<path class="st43" d="M91.17,238.71c-0.02,0.84-0.12,1.8-1.16,1.44c-1.34-0.47-3.05-0.78-3.58-2.25c-0.24-0.68,0.88-1.48,1.82-1.5
		C89.81,236.39,90.77,237.27,91.17,238.71z"/>
	<path class="st44" d="M226.4,202.6c-0.74,1.17-1.03,2.91-2.53,3.32c-0.76,0.2-1.25-1-1.17-1.92c0.12-1.47,0.74-2.62,2.39-2.74
		C225.88,201.2,226.54,201.51,226.4,202.6z"/>
	<path class="st45" d="M143.65,121.86c-0.02,0.53-0.04,1.06-0.06,1.59c-0.46,0.51-0.91,1.01-1.37,1.52
		c-7.29,2.19-14.7,2.96-22.3,2.25c-2.75-0.26-4.16-0.95-4.04-4.2c0.27-7.08,0.12-14.19,0.05-21.28c-0.02-1.96,0.16-2.6,2.63-2.43
		c7.64,0.54,15.38,1.18,22.81-1.67c0.41,0.02,0.82,0.05,1.23,0.07c-0.74,2.95-3.3,3.48-5.66,3.91c-4.33,0.79-8.71,1.3-13.14,0.84
		c-4.7-0.9-5.99-0.06-5.91,4.63c0.09,5.28-0.82,10.61,0.71,15.82c3.12,3.65,7.27,2.38,11.07,2.14c4.34-0.28,8.59-1.29,12.54-3.27
		C142.69,121.54,143.18,121.66,143.65,121.86z"/>
	<path class="st46" d="M111.93,92.83c-0.11-0.14-0.19-0.3-0.25-0.46c2.38-2.22,6.48-1.51,8.21-4.84c3.7,1.07,7.16-2.04,10.88-0.63
		c1.31,1.1,3.5,0.49,4.44,2.29c0.01,0.16,0.01,0.31-0.02,0.46c-5.94,1.1-11.91,2.05-17.79,3.38
		C115.45,93.48,113.76,92.58,111.93,92.83z"/>
	<path class="st47" d="M134.58,78.6c-5.15,2.54-10.38,1.62-15.61,0.43c5.22,0.09,10.45,0.21,15.66-0.38
		C134.63,78.65,134.58,78.6,134.58,78.6z"/>
	<path class="st48" d="M139.1,72.74c0.4-1.38,0.8-2.75,1.28-4.38c1.76,1.2,1.44,3.11,2.5,4.21c0.21,0.28,0.42,0.56,0.63,0.83
		C141.53,76.57,140.54,73.17,139.1,72.74z"/>
	<path class="st49" d="M169.59,87.86c-0.42,0.51-0.85,1.01-1.27,1.52c-2.09,2.38-5.04,2.31-7.81,2.65
		c-4.06,0.49-8.13,0.81-12.19-0.08c-2.9-1.8-2.3-3.84-0.42-5.98c0.3-0.28,0.65-0.48,1.03-0.62c5.89,0.74,11.33-1.83,17.06-2.35
		C168.17,83.89,167.06,87.23,169.59,87.86z"/>
	<path class="st50" d="M165.97,83c-5.38,2.77-10.82,5.14-17.06,2.94c-2.67,0.11-4.92-0.41-5.4-3.59c2.03-1.73,4.61-2.87,6.91-3.66
		c3.02-1.03,6.95-0.16,9.53,1.47C161.93,81.41,164,82.02,165.97,83z"/>
	<path class="st51" d="M143.52,82.35c1.8,1.2,3.6,2.4,5.4,3.6c0,0-0.09,0.15-0.09,0.15c-2.2,0.38-2.2,3.57-4.65,3.65
		c-0.22-0.13-0.45-0.27-0.67-0.41c-0.34-0.83-0.68-1.66-1.02-2.48c-1.38-1.25-2.47-2.81-4.08-3.81c0,0-0.01,0.04-0.01,0.04
		c-0.05-0.31-0.1-0.61-0.15-0.92C140.07,80.36,141.77,81.86,143.52,82.35z"/>
	<path class="st52" d="M135.21,89.2c-1.91,0.06-3.55-0.4-4.44-2.29c1.19-0.1,2.4-0.13,3.57-0.34c0.91-0.17,1.79-0.28,2.13,0.71
		C136.79,88.25,135.94,88.75,135.21,89.2z"/>
	<path class="st53" d="M138.4,83.04c2.19,0.38,3.1,2.13,4.08,3.81C140.69,86.05,139.55,84.54,138.4,83.04z"/>
	<path class="st23" d="M138.33,61.57c-0.04,1.76-0.07,3.53-0.11,5.29c-0.22,0.21-0.43,0.41-0.65,0.61
		c-0.26-0.24-0.52-0.47-0.78-0.71c1.12-1.57,0.98-3.37,0.95-5.16C137.92,61.47,138.12,61.46,138.33,61.57z"/>
	<path class="st9" d="M123.36,100.97c6.58-0.1,13.26,0.45,19.24-3.25c1.88,0.37,0.81,1.83,0.81,2.66c0.01,6.45-0.15,12.9-0.25,19.35
		c0.31,1.58-0.8,2.31-1.91,2.79c-7.55,3.28-15.33,4.24-23.37,2.09c-0.39-0.1-0.53-0.48-0.74-0.79c-0.1-6.3-0.02-12.6-0.04-18.89
		c-0.01-4.38,0-4.38,4.47-4.27C122.19,100.66,122.81,100.63,123.36,100.97z"/>
	<path class="st54" d="M167.98,115.36c0.51,1.68-0.59,2.71-1.76,3.3c-2.1,1.06-5.03,0.07-6.58,2.61c-3.83-1.65-7.71,2.41-11.64-0.14
		c-0.88-0.57-2.39-0.15-3.61-0.19c-0.05-1.65,0.17-3.08,2.38-2.81c5.56-0.71,11.19,0.15,16.74-0.76
		C165.16,117.04,166.72,116.53,167.98,115.36z"/>
	<path class="st55" d="M117.52,124.07c7.19,1.44,14.27,0.99,21.24-1.27c1.78-0.58,3.55-1.18,4.41-3.08
		c0.19,0.48,0.39,0.96,0.58,1.43c-0.07,0.23-0.1,0.46-0.09,0.7c-8.1,5.27-16.95,5.12-25.98,3.51c-0.33-0.06-0.54-0.74-0.81-1.14
		C116.98,123.79,117.19,123.72,117.52,124.07z"/>
	<path class="st56" d="M148.28,91.33c6.85,1.06,13.58,0.95,20.04-1.95c-1.95,3.49-5.59,3.02-8.64,3.29
		c-4.53,0.4-9.11,0.13-13.67,0.14c-0.69-0.39-1.6-0.55-1.7-1.57C145.65,90.13,146.97,90.49,148.28,91.33z"/>
	<path class="st57" d="M148.28,91.33c-1.32-0.03-2.65-0.06-3.97-0.09c-0.04-0.5-0.08-1-0.13-1.49c0.06-3.11,2.43-3.29,4.65-3.65
		C147.64,87.74,146.79,89.41,148.28,91.33z"/>
	<path class="st58" d="M163.52,117.38c-5.53,1.42-11.15,0.76-16.74,0.76c1.49-1.32,3.3-0.69,4.89-0.57
		C155.64,117.86,159.56,116.65,163.52,117.38z"/>
	<path class="st59" d="M117.52,124.07c-0.21,0.09-0.43,0.15-0.66,0.17c-0.04-6.43-0.09-12.86-0.11-19.29
		c-0.02-5.01,0-5.02,4.86-4.45c0.59,0.07,1.17,0.31,1.75,0.47c-5.89,0.16-5.89,0.16-5.89,6.12
		C117.48,112.75,117.5,118.41,117.52,124.07z"/>
</g>
</svg>
